<svg width="161" height="47" viewBox="0 0 161 47" fill="none" xmlns="http://www.w3.org/2000/svg">
<ellipse cx="136.892" cy="23.9098" rx="24.0167" ry="23.069" fill="white" fill-opacity="0.078571"/>
<path fill-rule="evenodd" clip-rule="evenodd" d="M136.892 16.2202C134.717 16.2202 134.447 16.2292 133.591 16.2676C130.683 16.3958 129.068 17.9453 128.935 20.7392C128.896 21.5607 128.887 21.8221 128.887 23.9099C128.887 25.9989 128.896 26.2603 128.935 27.0806C129.068 29.8732 130.683 31.4252 133.591 31.5534C134.447 31.5906 134.717 31.5995 136.892 31.5995C139.067 31.5995 139.339 31.5906 140.195 31.5534C143.098 31.4252 144.719 29.8758 144.85 27.0806C144.888 26.2603 144.898 25.9989 144.898 23.9099C144.898 21.8221 144.888 21.5607 144.85 20.7392C144.719 17.9491 143.103 16.3945 140.195 16.2676C139.339 16.2292 139.067 16.2202 136.892 16.2202ZM136.891 17.6074C139.029 17.6074 139.282 17.6151 140.127 17.6523C142.298 17.7471 143.309 18.7352 143.409 20.8038C143.447 21.615 143.455 21.8572 143.455 23.9104C143.455 25.9635 143.447 26.207 143.409 27.017C143.309 29.0842 142.299 30.0749 140.127 30.1698C139.282 30.2056 139.03 30.2146 136.891 30.2146C134.754 30.2146 134.5 30.2069 133.657 30.1698C131.482 30.0736 130.475 29.0817 130.375 27.017C130.337 26.207 130.328 25.9635 130.328 23.9104C130.328 21.8572 130.337 21.6137 130.375 20.8038C130.474 18.734 131.485 17.7458 133.657 17.651C134.5 17.6138 134.754 17.6074 136.891 17.6074ZM132.781 23.9101C132.781 21.7288 134.623 19.9614 136.892 19.9614C139.162 19.9614 141.003 21.73 141.003 23.9101C141.003 26.0914 139.162 27.8587 136.892 27.8587C134.623 27.8587 132.781 26.0914 132.781 23.9101ZM136.891 26.4731C135.417 26.4731 134.223 25.3261 134.223 23.9099C134.223 22.495 135.417 21.3467 136.891 21.3467C138.364 21.3467 139.561 22.4937 139.561 23.9099C139.561 25.3261 138.364 26.4731 136.891 26.4731ZM140.203 19.8061C140.203 19.296 140.634 18.8833 141.164 18.8833C141.696 18.8833 142.126 19.296 142.126 19.8061C142.126 20.3161 141.695 20.7288 141.164 20.7288C140.633 20.7288 140.203 20.3149 140.203 19.8061Z" fill="white"/>
<ellipse cx="80.8524" cy="23.9098" rx="24.0167" ry="23.069" fill="white" fill-opacity="0.078571"/>
<path d="M88.8588 19.6228C88.2704 19.874 87.6366 20.0432 86.9721 20.1201C87.6513 19.7292 88.1703 19.1115 88.4171 18.3745C87.782 18.736 87.0789 18.9987 86.3303 19.1397C85.7326 18.5258 84.8773 18.1426 83.934 18.1426C81.8125 18.1426 80.2541 20.0432 80.7331 22.0169C78.0046 21.8849 75.5829 20.6289 73.9631 18.7206C73.1025 20.138 73.5175 21.9938 74.9798 22.9332C74.4421 22.9166 73.9364 22.7743 73.4934 22.5385C73.4574 23.9995 74.5488 25.367 76.1286 25.672C75.6669 25.7925 75.1599 25.8207 74.6449 25.7259C75.0625 26.9793 76.278 27.8905 77.7137 27.9161C76.3301 28.9568 74.5915 29.422 72.8477 29.2247C74.302 30.1205 76.0272 30.6421 77.8818 30.6421C83.982 30.6421 87.4271 25.6938 87.219 21.2556C87.8621 20.8122 88.4185 20.256 88.8588 19.6228Z" fill="white"/>
<ellipse cx="24.8135" cy="23.9098" rx="24.0167" ry="23.069" fill="white" fill-opacity="0.078571"/>
<path d="M22.4771 21.3467H19.8086V23.9099H22.4771V31.5995H26.4799V23.9099H28.9082L29.1484 21.3467H26.4799V20.2791C26.4799 19.6665 26.608 19.4242 27.2244 19.4242H29.1484V16.2202H25.9408C23.5419 16.2202 22.4771 17.2352 22.4771 19.1782V21.3467Z" fill="white"/>
</svg>
